<?xml version="1.0" encoding="utf-8"?><svg version="1.1" id="Layer_1" xmlns="http://www.w3.org/2000/svg" xmlns:xlink="http://www.w3.org/1999/xlink" x="0px" y="0px" viewBox="0 0 122.88 116.21" style="enable-background:new 0 0 122.88 116.21" xml:space="preserve"><style type="text/css">.st0{fill-rule:evenodd;clip-rule:evenodd;}</style><g><path class="st0" d="M8.28,0H114.6c4.57,0,8.28,3.73,8.28,8.28v82.61c0,4.54-3.73,8.27-8.28,8.27h-8.77 c1.25-2.49,2.31-5.09,3.14-7.8h4.7c0.64,0,1.19-0.25,1.62-0.67c0.43-0.42,0.67-0.98,0.67-1.62V20.59h0.05l0,0H7.23v68.48 c0,0.63,0.25,1.19,0.67,1.62c0.43,0.43,0.99,0.67,1.62,0.67h4.39c0.83,2.71,1.88,5.31,3.14,7.8H8.28C3.73,99.16,0,95.43,0,90.89 V8.28C-0.01,3.73,3.71,0,8.28,0L8.28,0L8.28,0z M82.2,29.2c-2.33,27.87-34.23,9.55-46.35,32.77c-1.71,3.78-2.86,7.29-3.4,10.5 c-0.89,1.1-1.71,2.28-2.45,3.54c-3.7,6.41-4.44,13.71-2.67,20.33c1.78,6.62,6.08,12.57,12.49,16.26c6.41,3.7,13.7,4.44,20.33,2.67 c6.62-1.77,12.57-6.07,16.26-12.48c1.64-2.84,2.7-5.84,3.22-8.88c3.77-2.2,7.1-5.3,9.64-9.41c4.31-10-3.54-17.97,7.21-25.01 c-6.65-3.34-10.69,0.11-14.57,6.87c-4.2,9.11-19.93-1.68-5.18-7.29C89.38,54.28,88.22,39.43,82.2,29.2L82.2,29.2L82.2,29.2 L82.2,29.2z M52.63,89.33c0.08,0,0.16,0,0.24,0.01l9.23-6.91c1.06-0.8,2.59-0.59,3.39,0.48c0.8,1.07,0.59,2.59-0.48,3.4l-9.13,6.85 c-0.26,1.56-1.61,2.76-3.25,2.76c-1.81,0-3.28-1.48-3.28-3.29c0-0.34,0.06-0.67,0.15-1l-9.4-7.26c-0.59-0.46-0.7-1.31-0.24-1.9 c0.46-0.6,1.31-0.71,1.9-0.25l9.56,7.39C51.72,89.43,52.16,89.33,52.63,89.33L52.63,89.33L52.63,89.33z M64.62,69.64 c11.37,6.56,14.93,19.82,8.36,31.2c-6.56,11.37-19.83,14.93-31.2,8.37c-11.37-6.56-14.92-19.83-8.36-31.2 C39.99,66.63,53.25,63.08,64.62,69.64L64.62,69.64L64.62,69.64z M106.72,6.7c2.26,0,4.09,1.83,4.09,4.09 c0,2.26-1.84,4.09-4.09,4.09c-2.25,0-4.09-1.83-4.09-4.09C102.63,8.53,104.45,6.7,106.72,6.7L106.72,6.7L106.72,6.7z M79.01,6.7 c2.26,0,4.09,1.83,4.09,4.09c0,2.26-1.83,4.09-4.09,4.09c-2.26,0-4.09-1.83-4.09-4.09C74.91,8.53,76.74,6.7,79.01,6.7L79.01,6.7 L79.01,6.7z M92.86,6.7c2.26,0,4.09,1.83,4.09,4.09c0,2.26-1.83,4.09-4.09,4.09c-2.26,0-4.09-1.83-4.09-4.09 C88.78,8.53,90.6,6.7,92.86,6.7L92.86,6.7L92.86,6.7z"/></g></svg>