<svg id="Capa_1" enable-background="new 0 0 512.028 512.028" height="512" viewBox="0 0 512.028 512.028" width="512" xmlns="http://www.w3.org/2000/svg"><g><path d="m256.011 255.063c-13.167 0-23.878 10.711-23.878 23.878v17.942h-35.858c-13.167 0-23.878 10.712-23.878 23.878s10.711 23.878 23.878 23.878h59.737c13.166 0 23.877-10.712 23.877-23.878v-41.821c0-13.165-10.711-23.877-23.878-23.877zm-68.614 65.699c0-4.896 3.982-8.878 8.878-8.878h35.858v8.878c0 3.137.614 6.131 1.718 8.878h-37.576c-4.896 0-8.878-3.982-8.878-8.878zm77.492 0c0 4.896-3.982 8.878-8.878 8.878s-8.878-3.982-8.878-8.878v-41.821c0-4.896 3.983-8.878 8.878-8.878s8.878 3.982 8.878 8.878z"/><path d="m506.782 361.786-63.386-109.775c-6.994-12.112-19.519-19.343-33.504-19.343-.001 0 0 0-.001 0-.601 0-1.195.031-1.79.058-2.343-4.04-4.831-7.964-7.458-11.769v-85.045h6.36c10.61 0 20.113-5.488 25.42-14.68 5.308-9.193 5.31-20.168.004-29.361l-18.63-32.26c-2.071-3.587-6.66-4.815-10.245-2.744-3.587 2.071-4.816 6.658-2.744 10.245l18.629 32.259c2.594 4.495 2.593 9.863-.004 14.36-2.596 4.496-7.243 7.18-12.43 7.18h-13.86c-4.142 0-7.5 3.358-7.5 7.5v73.722c-13.328-14.562-28.942-26.693-46.13-35.975v-37.747c0-4.142-3.358-7.5-7.5-7.5h-13.86c-5.194 0-9.844-2.686-12.44-7.184-2.594-4.495-2.593-9.861.004-14.355l44.431-76.932c2.594-4.494 7.24-7.177 12.429-7.177s9.835 2.683 12.432 7.18l10.8 18.69c2.072 3.586 6.66 4.813 10.246 2.741s4.814-6.66 2.741-10.246l-10.798-18.687c-5.305-9.191-14.809-14.678-25.421-14.678s-20.115 5.487-25.419 14.677l-44.429 76.93c-5.31 9.189-5.313 20.163-.008 29.356 5.307 9.196 14.814 14.686 25.432 14.686h6.36v23.033c-21.314-9.021-44.538-13.893-68.5-13.893-28.975 0-56.332 7.054-80.451 19.528l-39.914-69.13c-6.997-12.112-19.521-19.341-33.508-19.341-.002 0-.006 0-.007 0-13.984.003-26.505 7.234-33.494 19.342l-63.392 109.771c-6.996 12.116-6.997 26.581-.003 38.695s19.52 19.346 33.508 19.346h12.28v221.37c0 14.959 12.17 27.13 27.13 27.13h47.96c14.96 0 27.13-12.171 27.13-27.13v-21.318c29.607 21.384 65.375 33.159 102.76 33.159 37.04 0 72.977-11.69 102.771-33.187v21.348c0 14.958 12.169 27.127 27.127 27.127h47.963c14.958 0 27.127-12.169 27.127-27.127v-64.812h12.276c13.987 0 26.513-7.232 33.506-19.346 6.994-12.113 6.994-26.577 0-38.691zm-250.769 119.687c-48.061 0-93.213-21.261-123.881-58.331-2.641-3.192-7.37-3.638-10.56-.998-3.191 2.641-3.638 7.368-.998 10.56 5.485 6.63 11.402 12.788 17.679 18.467v33.46c0 6.688-5.442 12.13-12.13 12.13h-47.96c-6.688 0-12.13-5.442-12.13-12.13v-228.87c0-4.142-3.358-7.5-7.5-7.5h-19.78c-8.565 0-16.235-4.428-20.518-11.846s-4.281-16.275.002-23.694l63.391-109.771c4.279-7.413 11.945-11.84 20.506-11.842h.005c8.564 0 16.235 4.428 20.519 11.843l39.889 69.086c-49.378 31.139-82.254 86.161-82.254 148.725 0 30.206 7.796 60.001 22.547 86.164 1.378 2.444 3.921 3.818 6.54 3.818 1.248 0 2.512-.312 3.677-.968 3.608-2.034 4.884-6.608 2.85-10.217-13.485-23.918-20.613-51.166-20.613-78.796 0-88.616 72.099-160.71 160.72-160.71 56.041 0 107.685 29.096 136.884 76.488-6.788 3.3-12.542 8.596-16.51 15.469l-1.476 2.557c-23.841-42.869-69.074-69.875-118.898-69.875-75.029 0-136.07 61.041-136.07 136.07s61.041 136.07 136.07 136.07c34.945 0 67.939-13.12 93.263-37.009h9.508v24.49c-28.811 23.987-65.17 37.16-102.772 37.16zm56.978-80.997c4.13 7.155 10.2 12.588 17.351 15.853-2.409 1.882-4.878 3.667-7.405 5.352l-4.286-7.423c-2.071-3.587-6.658-4.817-10.245-2.745-3.587 2.071-4.816 6.658-2.745 10.245l4.3 7.448c-14.369 7.167-30.108 11.396-46.45 12.39v-19.462c0-4.142-3.358-7.5-7.5-7.5s-7.5 3.358-7.5 7.5v19.459c-16.588-1.019-32.282-5.392-46.413-12.451l4.263-7.384c2.071-3.587.842-8.174-2.745-10.245-3.588-2.073-8.174-.842-10.245 2.745l-4.252 7.364c-13.451-8.951-25.017-20.517-33.968-33.968l7.363-4.251c3.587-2.071 4.816-6.658 2.745-10.245-2.072-3.587-6.658-4.816-10.245-2.745l-7.383 4.263c-7.058-14.131-11.431-29.824-12.45-46.413h19.458c4.142 0 7.5-3.358 7.5-7.5s-3.358-7.5-7.5-7.5h-19.458c1.019-16.588 5.392-32.282 12.45-46.413l7.383 4.263c1.181.682 2.471 1.006 3.743 1.006 2.592 0 5.113-1.345 6.502-3.751 2.071-3.587.842-8.174-2.745-10.245l-7.363-4.251c8.951-13.452 20.516-25.018 33.968-33.969l4.252 7.364c1.389 2.406 3.91 3.751 6.502 3.751 1.272 0 2.562-.324 3.743-1.006 3.587-2.071 4.816-6.658 2.745-10.245l-4.263-7.384c14.131-7.058 29.825-11.431 46.413-12.451v19.459c0 4.142 3.358 7.5 7.5 7.5s7.5-3.358 7.5-7.5v-19.45c16.435 1.01 32.173 5.319 46.433 12.407l-4.283 7.418c-2.071 3.587-.842 8.174 2.745 10.245 1.181.682 2.471 1.006 3.743 1.006 2.592 0 5.113-1.346 6.502-3.751l4.293-7.436c13.359 8.856 24.956 20.371 33.987 34.005l-7.425 4.287c-3.587 2.071-4.816 6.658-2.745 10.245 1.389 2.406 3.91 3.751 6.502 3.751 1.272 0 2.562-.325 3.743-1.006l7.405-4.275c.53 1.065 1.051 2.137 1.552 3.222l-52.97 91.727c-6.994 12.112-6.995 26.576-.002 38.69zm180.801-7.499c-4.282 7.417-11.951 11.845-20.516 11.845h-19.776c-4.142 0-7.5 3.358-7.5 7.5v72.312c0 6.687-5.44 12.127-12.127 12.127h-47.963c-6.687 0-12.127-5.44-12.127-12.127v-72.312c0-4.142-3.358-7.5-7.5-7.5h-19.786c-8.564 0-16.234-4.428-20.516-11.846-4.282-7.417-4.281-16.273.001-23.69l63.393-109.775c4.283-7.416 11.952-11.843 20.515-11.842 8.563 0 16.232 4.428 20.515 11.844l63.386 109.775c4.283 7.416 4.284 16.272.001 23.689z"/></g></svg>