<svg id="Capa_1" enable-background="new 0 0 512 512" height="512" viewBox="0 0 512 512" width="512" xmlns="http://www.w3.org/2000/svg"><g><path d="m509.335 487.462-117.056-175.584c-2.934-4.4-7.843-7.028-13.132-7.028-5.29 0-10.199 2.628-13.133 7.028l-15.308 22.962-70.64-105.96v-97.913h51.267s.01 42.99.027 43.354c.604 12.849 11.369 22.913 24.508 22.913h101.225c5.691 0 10.794-2.938 13.651-7.861 2.857-4.922 2.877-10.812.053-15.753l-23.703-41.481c-.137-.239-.137-.536 0-.776l23.703-41.48c2.824-4.941 2.804-10.831-.053-15.753-2.857-4.923-7.96-7.861-13.651-7.861h-77.626v-25.636c0-13.271-10.796-24.066-24.066-24.066h-75.334v-.783c-.001-8.704-7.081-15.784-15.784-15.784h-16.566c-8.703 0-15.784 7.08-15.784 15.783v27.984c0 4.143 3.358 7.5 7.5 7.5s7.5-3.357 7.5-7.5v-27.984c0-.432.352-.783.784-.783h16.566c.432 0 .783.352.783.783v192.527c-2.616-1.837-5.767-2.861-9.066-2.861-3.299 0-6.451 1.023-9.067 2.861v-134.542c0-4.143-3.358-7.5-7.5-7.5s-7.5 3.357-7.5 7.5v155.112l-70.64 105.96-15.308-22.962c-2.934-4.401-7.843-7.028-13.132-7.028s-10.198 2.627-13.132 7.028l-117.056 175.584c-3.235 4.853-3.535 11.061-.784 16.202 2.752 5.142 8.084 8.336 13.916 8.336h92.669c4.142 0 7.5-3.357 7.5-7.5s-3.358-7.5-7.5-7.5h-37.252l107.089-160.634 43.771-21.885 29.426 22.069c2.667 2 6.334 2.001 9 0l29.425-22.068 43.773 21.886 107.088 160.632h-302.036c-4.142 0-7.5 3.357-7.5 7.5s3.358 7.5 7.5 7.5h357.453c5.832 0 11.163-3.194 13.915-8.336s2.452-11.349-.783-16.202zm-153.935-356.495c4.999 0 9.066 4.067 9.066 9.066s-4.067 9.066-9.066 9.066c-3.128 0-6.208.627-9.067 1.792v-19.924zm101.693-49.7c.135 0 .451 0 .678.391s.069.665.003.782l-23.703 41.479c-2.761 4.83-2.761 10.832 0 15.661l23.703 41.48c.066.117.224.392-.003.782-.227.391-.543.391-.678.391h-101.225c-5.028 0-9.301-3.866-9.524-8.618-.118-2.514.768-4.896 2.495-6.705 1.728-1.812 4.059-2.811 6.561-2.811 13.271 0 24.066-10.796 24.066-24.066v-58.766zm-101.693-49.701c4.999 0 9.066 4.067 9.066 9.066v77.113c-2.8-1.143-5.86-1.779-9.066-1.779h-75.334v-84.4zm-339.603 465.434c-.152 0-.469 0-.691-.413-.221-.414-.045-.678.039-.805l117.056-175.584c.063-.095.232-.349.652-.349.419 0 .588.254.652.349l18.775 28.162-99.093 148.64zm276.69-198.008c-2.541-1.272-5.582-.996-7.855.708l-28.632 21.475-28.633-21.475c-2.272-1.703-5.313-1.979-7.854-.708l-24.439 12.22 60.275-90.413c.064-.096.233-.35.651-.35s.587.254.651.35l60.275 90.413zm204.407 197.595c-.222.413-.538.413-.69.413h-37.39l-99.093-148.639 18.775-28.163c.064-.096.232-.349.652-.349.419 0 .588.253.651.349l117.056 175.584c.084.127.259.391.039.805z"/></g></svg>